# xmcd CD database file
#
# Track frame offsets:
#	150
#	20408
#	44219
#	67947
#	86810
#	111203
#	116604
#	143902
#	174073
#	200333
#	221235
#	241469
#	246165
#
# Disc length: 3622 seconds
#
# Revision: 1
# Processed by: cddbd v1.5.2PL0 Copyright (c) Steve Scherf et al.
# Submitted via: CDex 1.70beta2
#
DISCID=bd0e240d
DTITLE=Ashley Davis - Passport
DYEAR=2012
DGENRE=Jazz
TTITLE0=Ceethrumi
TTITLE1=Show Me How To Love feat. Kirk Whalum
TTITLE2=In The Queue
TTITLE3=Let Us Break Bread Together
TTITLE4=From You feat. Michael an Regina Winans
TTITLE5=Ceethrumi Interlude
TTITLE6=Passport
TTITLE7=Daddy Girl
TTITLE8=Givin' You My Best
TTITLE9=A Little More Love
TTITLE10=So Strong
TTITLE11=The Promise
TTITLE12=I Will Be Here For You
EXTD=YEAR: 2012
EXTT0=
EXTT1=
EXTT2=
EXTT3=
EXTT4=
EXTT5=
EXTT6=
EXTT7=
EXTT8=
EXTT9=
EXTT10=
EXTT11=
EXTT12=
PLAYORDER=
